# MagicaVoxel @ Ephtracy

# group
o 

# material
mtllib default.mtl
usemtl palette

# normals
vn -1 0 0
vn 1 0 0
vn 0 0 1
vn 0 0 -1
vn 0 -1 0
vn 0 1 0

# texcoords
vt 0.845703 0.5
vt 0.873047 0.5
vt 0.958984 0.5
vt 0.994141 0.5

# verts
v -0.4 -0.4 0.4
v -0.4 -0.4 -0.4
v -0.4 -0.3 -0.1
v -0.4 -0.3 -0.4
v -0.4 -0.1 -0.1
v -0.4 -0.1 -0.4
v -0.4 0.4 0.4
v -0.4 0.4 -0.4
v 0.4 -0.4 0.4
v 0.4 -0.4 -0.4
v 0.4 -0.3 -0.1
v 0.4 -0.3 -0.4
v 0.4 -0.1 -0.1
v 0.4 -0.1 -0.4
v 0.4 0.4 0.4
v 0.4 0.4 -0.4
v -0.4 -0.4 0.4
v -0.4 0.4 0.4
v 0.4 -0.4 0.4
v 0.4 0.4 0.4
v -0.4 -0.4 -0.4
v -0.4 -0.3 -0.4
v -0.4 -0.1 -0.4
v -0.4 0.4 -0.4
v -0.3 -0.2 -0.4
v -0.3 -0.1 -0.4
v -0.3 0 -0.4
v -0.3 0.1 -0.4
v -0.2 -0.3 -0.4
v -0.2 -0.2 -0.4
v -0.2 -0.1 -0.4
v -0.2 0 -0.4
v -0.2 0.1 -0.4
v 0.2 -0.3 -0.4
v 0.2 -0.2 -0.4
v 0.2 -0.1 -0.4
v 0.2 0 -0.4
v 0.2 0.1 -0.4
v 0.3 -0.2 -0.4
v 0.3 -0.1 -0.4
v 0.3 0 -0.4
v 0.3 0.1 -0.4
v 0.4 -0.4 -0.4
v 0.4 -0.3 -0.4
v 0.4 -0.1 -0.4
v 0.4 0.4 -0.4
v -0.4 -0.4 0.4
v 0.4 -0.4 0.4
v -0.4 -0.4 -0.4
v 0.4 -0.4 -0.4
v -0.4 0.4 0.4
v 0.4 0.4 0.4
v -0.4 0.4 -0.4
v 0.4 0.4 -0.4

# faces
f 3/3/1 2/3/1 1/3/1
f 4/3/1 2/3/1 3/3/1
f 5/3/1 3/3/1 1/3/1
f 5/2/1 4/2/1 3/2/1
f 6/2/1 4/2/1 5/2/1
f 7/3/1 5/3/1 1/3/1
f 7/3/1 6/3/1 5/3/1
f 8/3/1 6/3/1 7/3/1
f 9/3/2 10/3/2 11/3/2
f 11/3/2 10/3/2 12/3/2
f 9/3/2 11/3/2 13/3/2
f 11/2/2 12/2/2 13/2/2
f 13/2/2 12/2/2 14/2/2
f 9/3/2 13/3/2 15/3/2
f 13/3/2 14/3/2 15/3/2
f 15/3/2 14/3/2 16/3/2
f 19/3/3 18/3/3 17/3/3
f 20/3/3 18/3/3 19/3/3
f 22/2/4 23/2/4 25/2/4
f 23/3/4 24/3/4 26/3/4
f 25/2/4 23/2/4 26/2/4
f 26/3/4 24/3/4 27/3/4
f 27/3/4 24/3/4 28/3/4
f 21/3/4 22/3/4 29/3/4
f 22/2/4 25/2/4 29/2/4
f 25/3/4 26/3/4 30/3/4
f 29/2/4 25/2/4 30/2/4
f 26/3/4 27/3/4 30/3/4
f 30/3/4 27/3/4 31/3/4
f 27/4/4 28/4/4 32/4/4
f 31/3/4 27/3/4 32/3/4
f 28/3/4 24/3/4 33/3/4
f 32/4/4 28/4/4 33/4/4
f 21/3/4 29/3/4 34/3/4
f 29/1/4 30/1/4 34/1/4
f 30/2/4 31/2/4 35/2/4
f 34/1/4 30/1/4 35/1/4
f 31/3/4 32/3/4 36/3/4
f 35/2/4 31/2/4 36/2/4
f 32/3/4 33/3/4 36/3/4
f 36/3/4 33/3/4 37/3/4
f 33/3/4 24/3/4 38/3/4
f 37/3/4 33/3/4 38/3/4
f 34/2/4 35/2/4 39/2/4
f 36/3/4 37/3/4 39/3/4
f 35/3/4 36/3/4 39/3/4
f 39/3/4 37/3/4 40/3/4
f 37/4/4 38/4/4 41/4/4
f 40/3/4 37/3/4 41/3/4
f 38/3/4 24/3/4 42/3/4
f 41/4/4 38/4/4 42/4/4
f 21/3/4 34/3/4 43/3/4
f 39/2/4 40/2/4 44/2/4
f 43/3/4 34/3/4 44/3/4
f 34/2/4 39/2/4 44/2/4
f 40/3/4 41/3/4 45/3/4
f 44/2/4 40/2/4 45/2/4
f 41/3/4 42/3/4 45/3/4
f 42/3/4 24/3/4 46/3/4
f 45/3/4 42/3/4 46/3/4
f 49/3/5 48/3/5 47/3/5
f 50/3/5 48/3/5 49/3/5
f 51/3/6 52/3/6 53/3/6
f 53/3/6 52/3/6 54/3/6
