# MagicaVoxel @ Ephtracy

# group
o 

# material
mtllib eye.mtl
usemtl palette

# normals
vn -1 0 0
vn 1 0 0
vn 0 0 1
vn 0 0 -1
vn 0 -1 0
vn 0 1 0

# texcoords
vt 0.826172 0.5
vt 0.869141 0.5
vt 0.955078 0.5
vt 0.958984 0.5

# verts
v -0.4 -0.4 0.4
v -0.4 -0.4 -0.3
v -0.4 -0.4 -0.4
v -0.4 -0.3 -0.3
v -0.4 -0.3 -0.4
v -0.4 -0.2 -0.3
v -0.4 -0.2 -0.4
v -0.4 0 -0.3
v -0.4 0 -0.4
v -0.4 0.1 -0.3
v -0.4 0.1 -0.4
v -0.4 0.4 0.4
v -0.4 0.4 -0.3
v -0.4 0.4 -0.4
v 0.4 -0.4 0.4
v 0.4 -0.4 -0.3
v 0.4 -0.4 -0.4
v 0.4 -0.1 -0.3
v 0.4 -0.1 -0.4
v 0.4 0 -0.3
v 0.4 0 -0.4
v 0.4 0.2 -0.3
v 0.4 0.2 -0.4
v 0.4 0.3 -0.3
v 0.4 0.3 -0.4
v 0.4 0.4 0.4
v 0.4 0.4 -0.3
v 0.4 0.4 -0.4
v -0.4 -0.4 0.4
v -0.4 0.4 0.4
v 0.4 -0.4 0.4
v 0.4 0.4 0.4
v -0.4 -0.4 -0.4
v -0.4 -0.3 -0.4
v -0.4 -0.2 -0.4
v -0.4 0 -0.4
v -0.4 0.1 -0.4
v -0.4 0.4 -0.4
v -0.3 -0.3 -0.4
v -0.3 -0.2 -0.4
v -0.3 0 -0.4
v -0.3 0.1 -0.4
v -0.3 0.3 -0.4
v -0.3 0.4 -0.4
v -0.2 -0.2 -0.4
v -0.2 0.2 -0.4
v -0.2 0.3 -0.4
v -0.2 0.4 -0.4
v -0.1 -0.4 -0.4
v -0.1 -0.3 -0.4
v -0.1 -0.1 -0.4
v -0.1 0 -0.4
v -0.1 0.1 -0.4
v 0 -0.4 -0.4
v 0 -0.3 -0.4
v 0 0 -0.4
v 0 0.1 -0.4
v 0 0.3 -0.4
v 0 0.4 -0.4
v 0.1 -0.1 -0.4
v 0.1 0.1 -0.4
v 0.1 0.3 -0.4
v 0.1 0.4 -0.4
v 0.2 -0.4 -0.4
v 0.2 -0.3 -0.4
v 0.2 -0.2 -0.4
v 0.2 0.2 -0.4
v 0.3 -0.4 -0.4
v 0.3 -0.3 -0.4
v 0.3 -0.1 -0.4
v 0.3 0 -0.4
v 0.3 0.2 -0.4
v 0.3 0.3 -0.4
v 0.4 -0.4 -0.4
v 0.4 -0.1 -0.4
v 0.4 0 -0.4
v 0.4 0.2 -0.4
v 0.4 0.3 -0.4
v 0.4 0.4 -0.4
v -0.4 -0.4 0.4
v 0.4 -0.4 0.4
v -0.4 -0.4 -0.3
v -0.1 -0.4 -0.3
v 0 -0.4 -0.3
v 0.2 -0.4 -0.3
v 0.3 -0.4 -0.3
v 0.4 -0.4 -0.3
v -0.4 -0.4 -0.4
v -0.1 -0.4 -0.4
v 0 -0.4 -0.4
v 0.2 -0.4 -0.4
v 0.3 -0.4 -0.4
v 0.4 -0.4 -0.4
v -0.4 0.4 0.4
v 0.4 0.4 0.4
v -0.4 0.4 -0.3
v -0.3 0.4 -0.3
v -0.2 0.4 -0.3
v 0 0.4 -0.3
v 0.1 0.4 -0.3
v 0.4 0.4 -0.3
v -0.4 0.4 -0.4
v -0.3 0.4 -0.4
v -0.2 0.4 -0.4
v 0 0.4 -0.4
v 0.1 0.4 -0.4
v 0.4 0.4 -0.4

# faces
f 4/2/1 2/2/1 1/2/1
f 4/4/1 3/4/1 2/4/1
f 5/4/1 3/4/1 4/4/1
f 6/2/1 4/2/1 1/2/1
f 6/2/1 5/2/1 4/2/1
f 7/2/1 5/2/1 6/2/1
f 8/2/1 6/2/1 1/2/1
f 8/4/1 7/4/1 6/4/1
f 9/4/1 7/4/1 8/4/1
f 10/2/1 8/2/1 1/2/1
f 10/2/1 9/2/1 8/2/1
f 11/2/1 9/2/1 10/2/1
f 12/2/1 10/2/1 1/2/1
f 13/4/1 11/4/1 10/4/1
f 13/2/1 10/2/1 12/2/1
f 14/4/1 11/4/1 13/4/1
f 15/2/2 16/2/2 18/2/2
f 16/4/2 17/4/2 18/4/2
f 18/4/2 17/4/2 19/4/2
f 15/2/2 18/2/2 20/2/2
f 18/2/2 19/2/2 20/2/2
f 20/2/2 19/2/2 21/2/2
f 15/2/2 20/2/2 22/2/2
f 20/4/2 21/4/2 22/4/2
f 22/4/2 21/4/2 23/4/2
f 15/2/2 22/2/2 24/2/2
f 22/2/2 23/2/2 24/2/2
f 24/2/2 23/2/2 25/2/2
f 15/2/2 24/2/2 26/2/2
f 24/4/2 25/4/2 27/4/2
f 26/2/2 24/2/2 27/2/2
f 27/4/2 25/4/2 28/4/2
f 31/2/3 30/2/3 29/2/3
f 32/2/3 30/2/3 31/2/3
f 33/4/4 34/4/4 39/4/4
f 34/2/4 35/2/4 39/2/4
f 35/4/4 36/4/4 40/4/4
f 39/2/4 35/2/4 40/2/4
f 36/2/4 37/2/4 41/2/4
f 40/4/4 36/4/4 41/4/4
f 37/4/4 38/4/4 42/4/4
f 41/2/4 37/2/4 42/2/4
f 42/4/4 38/4/4 43/4/4
f 43/4/4 38/4/4 44/4/4
f 40/4/4 41/4/4 45/4/4
f 39/4/4 40/4/4 45/4/4
f 41/4/4 42/4/4 45/4/4
f 42/4/4 43/4/4 45/4/4
f 45/4/4 43/4/4 46/4/4
f 43/2/4 44/2/4 47/2/4
f 46/4/4 43/4/4 47/4/4
f 47/2/4 44/2/4 48/2/4
f 33/4/4 39/4/4 49/4/4
f 39/4/4 45/4/4 49/4/4
f 49/4/4 45/4/4 50/4/4
f 45/1/4 46/1/4 51/1/4
f 51/1/4 46/1/4 52/1/4
f 52/1/4 46/1/4 53/1/4
f 49/2/4 50/2/4 54/2/4
f 50/4/4 45/4/4 55/4/4
f 54/2/4 50/2/4 55/2/4
f 51/3/4 52/3/4 56/3/4
f 52/4/4 53/4/4 56/4/4
f 53/1/4 46/1/4 57/1/4
f 56/4/4 53/4/4 57/4/4
f 47/4/4 48/4/4 58/4/4
f 46/4/4 47/4/4 58/4/4
f 58/4/4 48/4/4 59/4/4
f 56/3/4 57/3/4 60/3/4
f 51/3/4 56/3/4 60/3/4
f 45/1/4 51/1/4 60/1/4
f 57/1/4 46/1/4 61/1/4
f 60/3/4 57/3/4 61/3/4
f 58/2/4 59/2/4 62/2/4
f 46/4/4 58/4/4 62/4/4
f 62/2/4 59/2/4 63/2/4
f 54/4/4 55/4/4 64/4/4
f 55/4/4 45/4/4 65/4/4
f 64/4/4 55/4/4 65/4/4
f 45/1/4 60/1/4 66/1/4
f 65/4/4 45/4/4 66/4/4
f 60/1/4 61/1/4 66/1/4
f 61/1/4 46/1/4 67/1/4
f 66/1/4 61/1/4 67/1/4
f 62/4/4 63/4/4 67/4/4
f 46/4/4 62/4/4 67/4/4
f 64/2/4 65/2/4 68/2/4
f 65/4/4 66/4/4 69/4/4
f 68/2/4 65/2/4 69/2/4
f 66/4/4 67/4/4 69/4/4
f 69/4/4 67/4/4 70/4/4
f 70/4/4 67/4/4 71/4/4
f 67/4/4 63/4/4 72/4/4
f 71/4/4 67/4/4 72/4/4
f 72/4/4 63/4/4 73/4/4
f 68/4/4 69/4/4 74/4/4
f 69/4/4 70/4/4 74/4/4
f 70/2/4 71/2/4 75/2/4
f 74/4/4 70/4/4 75/4/4
f 71/4/4 72/4/4 76/4/4
f 75/2/4 71/2/4 76/2/4
f 72/2/4 73/2/4 77/2/4
f 76/4/4 72/4/4 77/4/4
f 73/4/4 63/4/4 78/4/4
f 77/2/4 73/2/4 78/2/4
f 78/4/4 63/4/4 79/4/4
f 82/2/5 81/2/5 80/2/5
f 83/2/5 81/2/5 82/2/5
f 84/2/5 81/2/5 83/2/5
f 85/2/5 81/2/5 84/2/5
f 86/2/5 81/2/5 85/2/5
f 87/2/5 81/2/5 86/2/5
f 88/4/5 83/4/5 82/4/5
f 89/2/5 84/2/5 83/2/5
f 89/4/5 83/4/5 88/4/5
f 90/4/5 85/4/5 84/4/5
f 90/2/5 84/2/5 89/2/5
f 91/2/5 86/2/5 85/2/5
f 91/4/5 85/4/5 90/4/5
f 92/4/5 87/4/5 86/4/5
f 92/2/5 86/2/5 91/2/5
f 93/4/5 87/4/5 92/4/5
f 94/2/6 95/2/6 96/2/6
f 96/2/6 95/2/6 97/2/6
f 97/2/6 95/2/6 98/2/6
f 98/2/6 95/2/6 99/2/6
f 99/2/6 95/2/6 100/2/6
f 100/2/6 95/2/6 101/2/6
f 96/4/6 97/4/6 102/4/6
f 97/2/6 98/2/6 103/2/6
f 102/4/6 97/4/6 103/4/6
f 98/4/6 99/4/6 104/4/6
f 103/2/6 98/2/6 104/2/6
f 99/2/6 100/2/6 105/2/6
f 104/4/6 99/4/6 105/4/6
f 100/4/6 101/4/6 106/4/6
f 105/2/6 100/2/6 106/2/6
f 106/4/6 101/4/6 107/4/6
